<?xml version="1.0" encoding="UTF-8"?>
<svg width="1024px" height="133px" viewBox="0 0 1024 133" version="1.1" xmlns="http://www.w3.org/2000/svg" xmlns:xlink="http://www.w3.org/1999/xlink">
    <title>Artboard Copy 4</title>
    <g id="Artboard-Copy-4" stroke="none" stroke-width="1" fill="none" fill-rule="evenodd" stroke-linecap="round" stroke-linejoin="round">
        <g id="Group" transform="translate(14.816188, 14.365274)" stroke="#FFFFFF" stroke-width="10">
            <g id="en2-latest">
                <path d="M0,0.62691205 C30.6959538,2.26149539 52.9015374,51.952829 85.2302548,51.952829 C124.73551,51.952829 121.25991,6.25247928 85.2302548,0.62691205 C49.6360104,-4.93067132 32.65527,27.7609965 32.65527,47.3759957 C32.65527,82.3560792 63.5327437,102.542035 85.2302548,103.278746 C175.45167,106.342099 153.594941,0.437621805 153.594941,0.437621805 C153.594941,0.437621805 173.265997,34.7179965 212.60811,103.278746 C209.871459,34.7179965 221.674093,0.437621805 248.016011,0.437621805" id="Path-Copy-13"></path>
            </g>
        </g>
        <g id="Group" transform="translate(263.385373, 14.365274)" stroke="#FFFFFF" stroke-width="10">
            <g id="en2-latest">
                <path d="M0,0.62730781 C30.6959538,2.26292304 52.9015374,51.985626 85.2302548,51.985626 C124.73551,51.985626 121.25991,6.25642637 85.2302548,0.62730781 C49.6360104,-4.93378397 32.65527,27.7785215 32.65527,47.4059034 C32.65527,82.4080693 63.5327437,102.606768 85.2302548,103.343944 C175.45167,106.409231 153.594941,0.437898069 153.594941,0.437898069 C153.594941,0.437898069 173.265997,34.7399135 212.60811,103.343944 C209.871459,34.7399135 221.674093,0.437898069 248.016011,0.437898069" id="Path-Copy-13"></path>
            </g>
        </g>
        <g id="Group" transform="translate(511.954558, 14.365274)" stroke="#FFFFFF" stroke-width="10">
            <g id="en2-latest">
                <path d="M0,0.62691205 C30.6959538,2.26149539 52.9015374,51.952829 85.2302548,51.952829 C124.73551,51.952829 121.25991,6.25247928 85.2302548,0.62691205 C49.6360104,-4.93067132 32.65527,27.7609965 32.65527,47.3759957 C32.65527,82.3560792 63.5327437,102.542035 85.2302548,103.278746 C175.45167,106.342099 153.594941,0.437621805 153.594941,0.437621805 C153.594941,0.437621805 173.265997,34.7179965 212.60811,103.278746 C209.871459,34.7179965 221.674093,0.437621805 248.016011,0.437621805" id="Path-Copy-13"></path>
            </g>
        </g>
        <g id="Group" transform="translate(760.523744, 14.365274)" stroke="#FFFFFF" stroke-width="10">
            <g id="en2-latest">
                <path d="M0,0.62691205 C30.6959538,2.26149539 52.9015374,51.952829 85.2302548,51.952829 C124.73551,51.952829 121.25991,6.25247928 85.2302548,0.62691205 C49.6360104,-4.93067132 32.65527,27.7609965 32.65527,47.3759957 C32.65527,82.3560792 63.5327437,102.542035 85.2302548,103.278746 C175.45167,106.342099 153.594941,0.437621805 153.594941,0.437621805 C153.594941,0.437621805 173.265997,34.7179965 212.60811,103.278746 C209.871459,34.7179965 221.674093,0.437621805 248.016011,0.437621805" id="Path-Copy-13"></path>
            </g>
        </g>
    </g>
</svg>