<svg xmlns="http://www.w3.org/2000/svg" version="1.1" xmlns:xlink="http://www.w3.org/1999/xlink" xmlns:svgjs="http://svgjs.com/svgjs" width="1000" height="1000"><rect width="1000" height="1000" rx="400" ry="400" fill="#ffffff"></rect><g transform="matrix(1,0,0,1,0,0)"><svg xmlns="http://www.w3.org/2000/svg" version="1.1" xmlns:xlink="http://www.w3.org/1999/xlink" xmlns:svgjs="http://svgjs.com/svgjs" width="525px" height="229px"><svg width="525px" height="229px" viewBox="0 0 525 229" version="1.1" xmlns="http://www.w3.org/2000/svg" xmlns:xlink="http://www.w3.org/1999/xlink">
    <title>Group</title>
    <g id="Page-1" stroke="none" stroke-width="1" fill="none" fill-rule="evenodd" stroke-linecap="round" stroke-linejoin="round">
        <g id="Group-2" transform="translate(-20.000000, -168.000000)" stroke="#000000" stroke-width="18">
            <g id="Group" transform="translate(29.000000, 177.000000)">
                <path d="M0,1.27998237 C62.7493705,4.61735396 108.142532,106.073433 174.229635,106.073433 C254.987181,106.073433 247.882281,12.765848 174.229635,1.27998237 C101.467067,-10.0670784 66.7546496,56.6803438 66.7546496,96.7287933 C66.7546496,168.148534 129.875087,209.362721 174.229635,210.866883 C358.662315,217.121409 313.98229,0.89350387 313.98229,0.89350387 C313.98229,0.89350387 354.194312,70.8846303 434.618358,210.866883 C429.024035,70.8846303 453.151249,0.89350387 507,0.89350387" id="Path-Copy-13"></path>
            </g>
        </g>
    </g>
</svg></svg></g></svg>