
<svg width="1024px" height="118px" viewBox="0 0 1024 118" version="1.1" xmlns="http://www.w3.org/2000/svg" xmlns:xlink="http://www.w3.org/1999/xlink">
    <g id="Page-1" stroke="none" stroke-width="1" fill="none" fill-rule="evenodd">
        <g id="Artboard-Copy-4" transform="translate(0.000000, -453.000000)">
            <g id="Group" transform="translate(-0.183812, 458.805757)" stroke="#FFFFFF" stroke-linecap="round" stroke-linejoin="round" stroke-width="10">
                <g id="en2-latest">
                    <path d="M0,0.645832937 C31.6223911,2.32974978 54.4981633,53.5208219 87.8025965,53.5208219 C128.500163,53.5208219 124.919666,6.4411859 87.8025965,0.645832937 C51.1340792,-5.07948434 33.6408416,28.5988535 33.6408416,48.8058547 C33.6408416,84.8416752 65.4502309,105.636865 87.8025965,106.395811 C180.746992,109.551619 158.230603,0.450829707 158.230603,0.450829707 C158.230603,0.450829707 178.495353,35.7658234 219.024853,106.395811 C216.205608,35.7658234 228.364458,0.450829707 255.501404,0.450829707" id="Path-Copy-13"></path>
                </g>
            </g>
            <g id="Group" transform="translate(255.887461, 458.805757)" stroke="#FFFFFF" stroke-linecap="round" stroke-linejoin="round" stroke-width="10">
                <g id="en2-latest">
                    <path d="M0,0.646240641 C31.6223911,2.33122052 54.4981633,53.5546087 87.8025965,53.5546087 C128.500163,53.5546087 124.919666,6.44525212 87.8025965,0.646240641 C51.1340792,-5.08269093 33.6408416,28.6169075 33.6408416,48.8366651 C33.6408416,84.8952344 65.4502309,105.703552 87.8025965,106.462977 C180.746992,109.620777 158.230603,0.451114308 158.230603,0.451114308 C158.230603,0.451114308 178.495353,35.7884018 219.024853,106.462977 C216.205608,35.7884018 228.364458,0.451114308 255.501404,0.451114308" id="Path-Copy-13"></path>
                </g>
            </g>
            <g id="Group" transform="translate(511.958734, 458.805757)" stroke="#FFFFFF" stroke-linecap="round" stroke-linejoin="round" stroke-width="10">
                <g id="en2-latest">
                    <path d="M0,0.645832937 C31.6223911,2.32974978 54.4981633,53.5208219 87.8025965,53.5208219 C128.500163,53.5208219 124.919666,6.4411859 87.8025965,0.645832937 C51.1340792,-5.07948434 33.6408416,28.5988535 33.6408416,48.8058547 C33.6408416,84.8416752 65.4502309,105.636865 87.8025965,106.395811 C180.746992,109.551619 158.230603,0.450829707 158.230603,0.450829707 C158.230603,0.450829707 178.495353,35.7658234 219.024853,106.395811 C216.205608,35.7658234 228.364458,0.450829707 255.501404,0.450829707" id="Path-Copy-13"></path>
                </g>
            </g>
            <g id="Group" transform="translate(768.030008, 458.805757)" stroke="#FFFFFF" stroke-linecap="round" stroke-linejoin="round" stroke-width="10">
                <g id="en2-latest">
                    <path d="M0,0.645832937 C31.6223911,2.32974978 54.4981633,53.5208219 87.8025965,53.5208219 C128.500163,53.5208219 124.919666,6.4411859 87.8025965,0.645832937 C51.1340792,-5.07948434 33.6408416,28.5988535 33.6408416,48.8058547 C33.6408416,84.8416752 65.4502309,105.636865 87.8025965,106.395811 C180.746992,109.551619 158.230603,0.450829707 158.230603,0.450829707 C158.230603,0.450829707 178.495353,35.7658234 219.024853,106.395811 C216.205608,35.7658234 228.364458,0.450829707 255.501404,0.450829707" id="Path-Copy-13"></path>
                </g>
            </g>
        </g>
    </g>
</svg>