<svg height="473.36008" viewBox="0 0 756.96034 473.36008" width="756.96034" xmlns="http://www.w3.org/2000/svg"><path d="m875.74982 529.19691a10.05579 10.05579 0 0 1 4.89934-14.62027l-1.4214-35.70656 15.89673 9.59831-1.08735 32.436a10.11027 10.11027 0 0 1 -18.28732 8.29248z" fill="#a0616a" transform="translate(-221.51983 -213.31996)"/><path d="m896.96714 506.04938-14.13241 2.258a4.49982 4.49982 0 0 1 -5.17019-3.85125l-5.97915-45.0295-29.54482-40.43167a13.57917 13.57917 0 0 1 3.6527-19.45295l-.001-.00009a13.57859 13.57859 0 0 1 18.7536 4.13l30.17438 47.21821 6.0057 50.18109a4.55393 4.55393 0 0 1 .01317.96485 4.48579 4.48579 0 0 1 -3.77198 4.01331z" fill="#6c63ff" transform="translate(-221.51983 -213.31996)"/><path d="m626.725 459.863h-12.26l-5.832-47.288 18.094.001z" fill="#a0616a"/><path d="m605.70782 456.35988h23.64387a0 0 0 0 1 0 0v14.88687a0 0 0 0 1 0 0h-38.53069a0 0 0 0 1 0 0 14.88686 14.88686 0 0 1 14.88682-14.88687z" fill="#2f2e41"/><path d="m678.45 438.879-9.16 8.148-34.145-33.667 11.876-9.813z" fill="#a0616a"/><path d="m885.77919 658.75819h23.64387a0 0 0 0 1 0 0v14.88687a0 0 0 0 1 0 0h-38.53072a0 0 0 0 1 0 0 14.88686 14.88686 0 0 1 14.88685-14.88687z" fill="#2f2e41" transform="matrix(.74716599 -.66463748 .66463748 .74716599 -439.24026 546.75064)"/><path d="m725.04291 402.777a10.05579 10.05579 0 0 1 12.32413 9.26669l34.32739 9.9302-14.12827 12.051-30.43186-11.27749a10.11027 10.11027 0 0 1 -2.09139-19.97042z" fill="#a0616a" transform="translate(-221.51983 -213.31996)"/><circle cx="610.54695" cy="130.6278" fill="#a0616a" r="24.56103"/><path d="m849.74968 664.32848-17.06368-1.36524a4.49731 4.49731 0 0 1 -4.13867-4.33691l-4.7627-143.833a4.48928 4.48928 0 0 1 3.87573-4.60547l34.01978-4.74707a4.49957 4.49957 0 0 1 5.05762 5.21387l-13.01807 76.249a3.51377 3.51377 0 0 0 -.0498.63477l.93847 72.24512a4.50116 4.50116 0 0 1 -4.50268 4.55957c-.11845.00001-.23735-.00488-.356-.01464z" fill="#2f2e41" transform="translate(-221.51983 -213.31996)"/><path d="m871.60368 647.0775-58.61914-65.23828a4.50392 4.50392 0 0 1 -1.12744-3.48438l7.40332-69.40527a4.49279 4.49279 0 0 1 4.77368-4.01269l35.97583 2.39843a4.49985 4.49985 0 0 1 3.96363 5.93067l-21.55518 63.76758a3.48717 3.48717 0 0 0 .79712 3.55078l49.79273 51.60351a4.50015 4.50015 0 0 1 -.949 6.999l-14.81909 8.75683a4.51037 4.51037 0 0 1 -5.63648-.86621z" fill="#2f2e41" transform="translate(-221.51983 -213.31996)"/><path d="m827.66521 383.68s15-13 22-6c0 0 32.5 20.5 18.5 76.5 0 0 12 54 7 56s-55.5 9.5-59.5 3.5-6-98 12-130z" fill="#6c63ff" transform="translate(-221.51983 -213.31996)"/><path d="m740.30326 430.21974 2.32172-14.12209a4.49983 4.49983 0 0 1 5.2872-3.689l44.61268 8.5507 47.69414-15.26072a13.57916 13.57916 0 0 1 17.30317 9.61039l.0004-.00089a13.57861 13.57861 0 0 1 -9.84233 16.48887l-54.332 13.71439-49.5089-10.15277a4.55367 4.55367 0 0 1 -.9196-.29228 4.48577 4.48577 0 0 1 -2.61648-4.8466z" fill="#6c63ff" transform="translate(-221.51983 -213.31996)"/><path d="m842.60633 363.87051c2.2445-5.19456 4.14379-12.11252-.16123-15.78514-2.49712-2.13029-6.09384-2.13468-9.36546-2.39971-9.21731-.74669-18.70553-4.98771-23.21077-13.06356s-1.98923-20.08442 6.51023-23.728c5.72923-2.456 12.29743-.78291 18.29444.91767l18.0058 5.10593c5.35005 1.51712 10.96737 3.19025 14.81895 7.20148 6.14269 6.3973 5.68351 17.21167.80459 24.618s-12.22634 15.13082-20.63767 17.94282z" fill="#2f2e41" transform="translate(-221.51983 -213.31996)"/><path d="m977.48017 686.68h-248a1 1 0 0 1 0-2h248a1 1 0 0 1 0 2z" fill="#3f3d56" transform="translate(-221.51983 -213.31996)"/><path d="m715.51983 213.32h-487a7.00778 7.00778 0 0 0 -7 7v360a7.00778 7.00778 0 0 0 7 7h487a7.00778 7.00778 0 0 0 7-7v-360a7.00778 7.00778 0 0 0 -7-7zm5 367a5.002 5.002 0 0 1 -5 5h-487a5.002 5.002 0 0 1 -5-5v-360a5.002 5.002 0 0 1 5-5h487a5.002 5.002 0 0 1 5 5z" fill="#3f3d56" transform="translate(-221.51983 -213.31996)"/><path d="m1 28.03998h499v2h-499z" fill="#3f3d56"/><circle cx="18" cy="15" fill="#3f3d56" r="6"/><circle cx="35.25" cy="15" fill="#3f3d56" r="6"/><circle cx="52.5" cy="15" fill="#3f3d56" r="6"/><g transform="translate(-221.51983 -213.31996)"><path d="m523.34267 524.62473a1 1 0 0 1 -1-1v-41a1 1 0 0 1 2 0v41a1.00005 1.00005 0 0 1 -1 1z" fill="#3f3d56"/><path d="m521.97182 466.62473a.99478.99478 0 0 1 -.50244-.13574l-56.81519-33.104a1.00019 1.00019 0 0 1 1.00684-1.72852l56.81518 33.104a1.00012 1.00012 0 0 1 -.50439 1.86425z" fill="#3f3d56"/><path d="m408.34364 466.62473a1.00012 1.00012 0 0 1 -.50439-1.86425l56.81494-33.104a1.00019 1.00019 0 0 1 1.00681 1.72852l-56.815 33.104a.9994.9994 0 0 1 -.50236.13573z" fill="#3f3d56"/><path d="m580.97182 516.62473a.99478.99478 0 0 1 -.50244-.13574l-56.81519-33.104a1.00019 1.00019 0 0 1 1.00684-1.72852l56.81518 33.104a1.00012 1.00012 0 0 1 -.50439 1.86425z" fill="#3f3d56"/><path d="m467.34364 516.62473a1.00012 1.00012 0 0 1 -.50439-1.86425l56.81494-33.104a1.00019 1.00019 0 0 1 1.00681 1.72852l-56.815 33.104a.99908.99908 0 0 1 -.50236.13573z" fill="#3f3d56"/><path d="m465.34267 415.62473a.99984.99984 0 0 1 -1-.99755l-.09253-36.38718a.99989.99989 0 0 1 .99756-1.00244h.00244a.99985.99985 0 0 1 1 .99756l.09253 36.3872a.99989.99989 0 0 1 -.99756 1.00244z" fill="#3f3d56"/><path d="m478.27626 434.54075h-26.052a4.50508 4.50508 0 0 1 -4.5-4.5v-13.38135a4.50508 4.50508 0 0 1 4.5-4.5h26.052a4.50508 4.50508 0 0 1 4.5 4.5v13.38135a4.50508 4.50508 0 0 1 -4.5 4.5z" fill="#ccc"/><path d="m435.15761 366.52073h-55.43347a1 1 0 0 1 0-2h55.43347a1 1 0 0 1 0 2z" fill="#3f3d56"/><path d="m465.25014 352.23753a1.00005 1.00005 0 0 1 -1-1v-34.6128a1 1 0 0 1 2 0v34.6128a1.00006 1.00006 0 0 1 -1 1z" fill="#3f3d56"/><path d="m358.15675 366.52073a.99564.99564 0 0 1 -.50891-.13965l-53.81506-31.896a1.0001 1.0001 0 0 1 1.01977-1.72071l53.81507 31.896a1.00009 1.00009 0 0 1 -.51087 1.86035z" fill="#3f3d56"/><path d="m304.34364 398.41673a1.00009 1.00009 0 0 1 -.51086-1.86036l53.81506-31.896a1.00009 1.00009 0 0 1 1.01978 1.7207l-53.81507 31.896a.99573.99573 0 0 1 -.50891.13966z" fill="#3f3d56"/><path d="m375.72414 382.65061h-13.38147a4.505 4.505 0 0 1 -4.5-4.5v-26.05175a4.505 4.505 0 0 1 4.5-4.5h13.38147a4.505 4.505 0 0 1 4.5 4.5v26.05175a4.505 4.505 0 0 1 -4.5 4.5z" fill="#ccc"/><path d="m478.27626 319.31565h-26.052a4.50508 4.50508 0 0 1 -4.5-4.5v-13.38183a4.50508 4.50508 0 0 1 4.5-4.5h26.052a4.50508 4.50508 0 0 1 4.5 4.5v13.38183a4.50508 4.50508 0 0 1 -4.5 4.5z" fill="#ccc"/><path d="m300.72414 351.65061h-13.38147a4.505 4.505 0 0 1 -4.5-4.5v-26.05175a4.505 4.505 0 0 1 4.5-4.5h13.38147a4.505 4.505 0 0 1 4.5 4.5v26.05175a4.505 4.505 0 0 1 -4.5 4.5z" fill="#ccc"/><path d="m300.72414 414.65061h-13.38147a4.505 4.505 0 0 1 -4.5-4.5v-26.05175a4.505 4.505 0 0 1 4.5-4.5h13.38147a4.505 4.505 0 0 1 4.5 4.5v26.05175a4.505 4.505 0 0 1 -4.5 4.5z" fill="#ccc"/><path d="m550.77626 366.52073h-55.43359a1 1 0 0 1 0-2h55.43359a1 1 0 0 1 0 2z" fill="#3f3d56"/><path d="m572.34364 366.52073a1 1 0 0 1 -.51074-1.86035l53.81494-31.896a1 1 0 1 1 1.01953 1.72071l-53.81494 31.896a.99522.99522 0 0 1 -.50879.13964z" fill="#3f3d56"/><path d="m626.15663 398.41673a.99531.99531 0 0 1 -.50879-.13965l-53.81494-31.896a1 1 0 1 1 1.01953-1.7207l53.81494 31.896a1 1 0 0 1 -.51074 1.86036z" fill="#3f3d56"/><path d="m568.15761 382.65061h-13.38135a4.50508 4.50508 0 0 1 -4.5-4.5v-26.05175a4.50508 4.50508 0 0 1 4.5-4.5h13.38135a4.50508 4.50508 0 0 1 4.5 4.5v26.05175a4.50508 4.50508 0 0 1 -4.5 4.5z" fill="#ccc"/><path d="m643.15761 351.65061h-13.38135a4.50508 4.50508 0 0 1 -4.5-4.5v-26.05175a4.50508 4.50508 0 0 1 4.5-4.5h13.38135a4.50508 4.50508 0 0 1 4.5 4.5v26.05175a4.50508 4.50508 0 0 1 -4.5 4.5z" fill="#ccc"/><path d="m643.15761 414.65061h-13.38135a4.50508 4.50508 0 0 1 -4.5-4.5v-26.05175a4.50508 4.50508 0 0 1 4.5-4.5h13.38135a4.50508 4.50508 0 0 1 4.5 4.5v26.05175a4.50508 4.50508 0 0 1 -4.5 4.5z" fill="#ccc"/><path d="m420.27614 485.54075h-26.052a4.505 4.505 0 0 1 -4.5-4.5v-13.38135a4.505 4.505 0 0 1 4.5-4.5h26.052a4.505 4.505 0 0 1 4.5 4.5v13.38135a4.505 4.505 0 0 1 -4.5 4.5z" fill="#ccc"/><path d="m536.0912 485.54075h-26.052a4.50508 4.50508 0 0 1 -4.5-4.5v-13.38135a4.50508 4.50508 0 0 1 4.5-4.5h26.052a4.50508 4.50508 0 0 1 4.5 4.5v13.38135a4.50508 4.50508 0 0 1 -4.5 4.5z" fill="#ccc"/><path d="m483.0912 534.54075h-26.052a4.50508 4.50508 0 0 1 -4.5-4.5v-13.38135a4.50508 4.50508 0 0 1 4.5-4.5h26.052a4.50508 4.50508 0 0 1 4.5 4.5v13.38135a4.50508 4.50508 0 0 1 -4.5 4.5z" fill="#ccc"/><path d="m594.0912 534.54075h-26.052a4.50508 4.50508 0 0 1 -4.5-4.5v-13.38135a4.50508 4.50508 0 0 1 4.5-4.5h26.052a4.50508 4.50508 0 0 1 4.5 4.5v13.38135a4.50508 4.50508 0 0 1 -4.5 4.5z" fill="#ccc"/><path d="m536.0912 534.54075h-26.052a4.50508 4.50508 0 0 1 -4.5-4.5v-13.38135a4.50508 4.50508 0 0 1 4.5-4.5h26.052a4.50508 4.50508 0 0 1 4.5 4.5v13.38135a4.50508 4.50508 0 0 1 -4.5 4.5z" fill="#ccc"/><path d="m496.91933 382.91673h-63.33833a4.50508 4.50508 0 0 1 -4.5-4.5v-25.792a4.50508 4.50508 0 0 1 4.5-4.5h63.33838a4.50508 4.50508 0 0 1 4.5 4.5v25.792a4.50508 4.50508 0 0 1 -4.50005 4.5z" fill="#6c63ff"/></g></svg>